PathFileType	4	(X/Y/Z)	E:\3-PhD\Data\MocapData\ElaboratedData\015\pre\dynamicElaborations\Run_baselineA1\Run_baselineA1.trc
DataRate	CameraRate	NumFrames	NumMarkers	Units	OrigDataRate	OrigDataStartFrame	OrigNumFrames
200	200	4	61	mm	200	8.550000e+02	99
Frame#	Time	FHD			LBHD			RBHD			C7			T10			CLAV			LSHO			LUUPA			LMUPA			LDUPA			LLEP			LMEP			LRAD			LUL			LRFIN			RSHO			RUPA1			RMUPA			RDUPA			RLEP			RMEP			RRAD			RUL			RUFIN			LASI			RASI			USACR			LSACR			RSACR			LTHI1			LTHI2			LTHI3			LTHI4			LLFC			LMFC			LTIB1			LTIB2			LTIB3			LTIB4			LLMAL			LMMAL			LHEE			LMT1			LMT5			LMT2			RTHI			RTHI2			RTHI3			RTHI4			RLFC			RMFC			RTIB1			RTIB2			RTIB3			RTIB4			RLMAL			RMMAL			RHEE			RMT1			RMT2			RMT5		
		X1	Y1	Z1	X2	Y2	Z2	X3	Y3	Z3	X4	Y4	Z4	X5	Y5	Z5	X6	Y6	Z6	X7	Y7	Z7	X8	Y8	Z8	X9	Y9	Z9	X10	Y10	Z10	X11	Y11	Z11	X12	Y12	Z12	X13	Y13	Z13	X14	Y14	Z14	X15	Y15	Z15	X16	Y16	Z16	X17	Y17	Z17	X18	Y18	Z18	X19	Y19	Z19	X20	Y20	Z20	X21	Y21	Z21	X22	Y22	Z22	X23	Y23	Z23	X24	Y24	Z24	X25	Y25	Z25	X26	Y26	Z26	X27	Y27	Z27	X28	Y28	Z28	X29	Y29	Z29	X30	Y30	Z30	X31	Y31	Z31	X32	Y32	Z32	X33	Y33	Z33	X34	Y34	Z34	X35	Y35	Z35	X36	Y36	Z36	X37	Y37	Z37	X38	Y38	Z38	X39	Y39	Z39	X40	Y40	Z40	X41	Y41	Z41	X42	Y42	Z42	X43	Y43	Z43	X44	Y44	Z44	X45	Y45	Z45	X46	Y46	Z46	X47	Y47	Z47	X48	Y48	Z48	X49	Y49	Z49	X50	Y50	Z50	X51	Y51	Z51	X52	Y52	Z52	X53	Y53	Z53	X54	Y54	Z54	X55	Y55	Z55	X56	Y56	Z56	X57	Y57	Z57	X58	Y58	Z58	X59	Y59	Z59	X60	Y60	Z60	X61	Y61	Z61	
879	4.390000	-3179.490276	1422.938969	233.802411	-3312.678149	1476.535576	213.453059	-3331.353630	1478.128134	339.966193	-3458.552576	1400.297321	284.240407	-3656.790461	1129.273853	304.112026	-3371.919927	1257.519056	256.659013	-3417.272920	1355.548879	81.758801	-3507.433821	1188.533783	-2.591264	-3496.954518	1144.515263	16.699490	-3537.578000	1131.508167	-24.569834	-3595.472320	1072.342546	-39.975906	-3632.411168	1067.253610	52.646786	-3424.229079	913.804898	73.777916	-3409.960780	976.389689	109.625399	-3330.476954	941.571201	130.714531	-3393.542812	1322.902574	455.967267	-3499.173437	1197.052814	558.432198	-3487.994920	1151.004586	549.748315	-3535.674731	1142.728424	586.287660	-3587.398796	1046.822006	607.859127	-3642.077169	1054.588324	544.163209	-3437.567008	883.223324	468.265826	-3458.754911	827.387233	516.645515	-3364.890714	842.506215	475.453711	-3599.741270	943.879030	149.187942	-3555.146431	910.122486	388.773074	-3721.591713	1028.402839	313.287129	-3743.176504	1000.385005	289.222962	-3729.184240	999.027302	343.499104	-3626.967997	648.319880	85.677140	-3568.482837	587.352272	76.572106	-3522.393113	602.593381	69.388392	-3563.653401	532.658886	105.085871	-3533.938558	452.118169	112.941540	-3515.454115	463.260840	234.566633	-3521.097955	294.099146	161.308690	-3596.998456	269.225525	125.390488	-3559.547315	255.951988	141.398079	-3587.669320	185.953768	184.339275	-3694.450105	99.126651	185.670163	-3675.825531	108.504903	270.637889	-3772.527970	57.668896	241.005704	-3558.480440	58.035609	239.803520	-3602.446435	31.954377	141.714194	-3561.502415	54.740732	192.158539	-3576.670797	715.730348	458.774563	-3534.416382	666.933017	448.015277	-3508.706206	673.483650	424.393633	-3553.203348	583.493991	448.515077	-3605.559891	426.365019	406.191951	-3594.244291	412.714769	275.267122	-3793.099564	377.451511	352.350755	-3865.390743	452.873340	389.588204	-3869.948488	408.490010	374.051614	-3921.056290	401.957223	340.373842	-3985.145776	455.554534	367.874756	-3972.053645	451.434987	283.222602	-4024.926743	541.918923	316.580245	-4056.396498	319.908711	294.614063	-4057.494878	323.964702	336.967208	-4087.560044	368.355203	387.239951	
880	4.395000	-3154.219037	1423.081985	235.374288	-3287.679469	1475.773873	214.338806	-3307.140212	1477.099601	340.796657	-3434.437930	1398.720654	283.342114	-3631.850512	1126.590676	302.946947	-3346.117176	1255.529314	257.661237	-3390.262308	1353.254227	82.129409	-3472.758209	1182.183485	0.060441	-3461.114618	1138.880804	20.321146	-3500.333630	1123.918563	-21.767079	-3555.454407	1061.562184	-37.245538	-3593.866036	1055.895892	54.797805	-3379.854882	912.954665	80.860341	-3369.092105	976.533810	116.586863	-3288.735334	945.697880	139.003439	-3370.001714	1322.886382	457.002570	-3480.204067	1202.226977	560.427904	-3469.513570	1155.755882	553.966584	-3518.377867	1149.762247	589.407674	-3572.267638	1055.296356	612.867453	-3625.572512	1061.996845	548.381476	-3423.742795	884.809477	480.328674	-3447.541759	830.876883	529.506601	-3352.392122	842.223307	490.118413	-3576.559409	941.781199	147.143962	-3530.249381	908.347124	387.093399	-3697.064819	1026.379817	312.216915	-3718.723376	998.572244	288.101959	-3704.669584	996.981756	342.346098	-3610.367799	645.435769	85.168190	-3553.188317	583.321286	75.514486	-3506.890767	597.561192	67.878270	-3549.379273	528.405417	103.725095	-3521.439800	447.837428	111.534480	-3500.934387	459.345515	233.814105	-3513.294371	289.528288	160.229508	-3590.960967	267.752382	125.519816	-3553.927814	252.819210	140.532489	-3583.621443	183.731844	183.855350	-3694.112632	100.111254	186.226952	-3675.046069	109.509735	271.164210	-3772.783150	59.105835	242.135532	-3558.824731	58.135187	239.763764	-3603.336768	32.292432	141.723831	-3562.133957	54.704655	192.062789	-3544.709341	717.640623	459.368905	-3499.904245	670.895970	448.810017	-3474.874070	678.419890	424.890523	-3514.240224	586.873751	449.966132	-3556.942958	428.837315	406.417873	-3545.247421	415.701287	274.779512	-3743.489080	378.979886	353.085001	-3816.142430	453.623705	390.958822	-3820.462327	409.274954	375.281033	-3871.672159	402.399588	341.910515	-3935.486865	455.085041	369.425642	-3923.330729	451.131266	284.880329	-3979.476222	540.098146	318.465166	-4002.489598	317.016939	298.204578	-4002.873245	321.259283	340.569200	-4033.345609	364.823109	391.313422	
881	4.400000	-3129.092132	1423.407723	236.853822	-3262.853096	1475.177252	215.324857	-3282.929888	1476.229343	341.743587	-3410.231179	1397.307986	282.566871	-3606.822113	1124.019463	301.784045	-3320.335865	1253.855449	258.838276	-3362.880942	1351.361171	82.837902	-3437.765568	1177.003577	2.815492	-3424.969907	1134.412828	23.929583	-3462.758473	1117.615445	-18.911164	-3514.982272	1052.303182	-34.472746	-3554.859944	1045.816489	56.990509	-3335.517622	913.496255	87.854502	-3328.340098	977.865583	123.466895	-3247.288237	951.028787	147.176317	-3346.366427	1323.230076	458.075423	-3460.981934	1208.079664	562.385000	-3450.847353	1161.279121	558.261221	-3500.852299	1157.645611	592.498362	-3556.767540	1064.678807	617.826243	-3608.800031	1070.329111	552.581700	-3409.799216	887.812321	491.980004	-3436.065719	835.756755	541.797031	-3339.821742	843.505493	504.201993	-3553.158882	939.468496	145.033550	-3505.454584	906.315414	385.461068	-3672.335990	1024.560941	311.104087	-3694.065563	996.963101	286.933955	-3680.022588	995.164991	341.162828	-3593.625284	643.074178	84.555496	-3537.726040	579.862417	74.372866	-3491.253651	593.234545	66.528456	-3535.065865	524.669079	102.120211	-3508.940611	444.010623	110.171360	-3486.084228	455.856599	233.272959	-3505.759656	285.191103	159.521796	-3584.676984	266.279990	125.428177	-3548.154516	249.827432	139.848777	-3579.721294	181.789301	183.407030	-3693.758472	101.193479	186.575819	-3674.224026	110.798925	271.454576	-3772.985196	60.759158	243.137738	-3559.111532	58.380586	239.684710	-3604.156246	32.555552	141.772985	-3562.693125	54.768127	191.913641	-3512.810721	720.207327	459.971313	-3465.537341	675.788626	449.340808	-3441.284194	684.333795	425.115523	-3475.255657	591.358812	451.011456	-3508.117374	432.666434	406.196731	-3496.352055	420.502433	273.874539	-3693.573396	380.681892	353.587390	-3766.977669	453.934049	392.422976	-3770.792281	409.679873	376.516388	-3822.072475	402.197806	343.373034	-3885.970521	453.399588	371.194989	-3874.894765	450.000464	286.803970	-3934.675137	536.820710	321.066126	-3947.891762	313.139306	301.356998	-3947.514599	317.364723	343.790157	-3978.498441	359.648282	395.165854	
882	4.405000	-3104.090664	1423.897384	238.242973	-3238.175394	1474.756555	216.427749	-3258.674810	1475.539061	342.828799	-3385.837999	1396.095200	281.955480	-3581.642014	1121.644465	300.583185	-3294.564237	1252.536462	260.204235	-3335.134739	1349.919933	83.900138	-3402.599235	1173.020539	5.594173	-3388.659903	1131.133306	27.449752	-3425.023452	1112.631150	-16.077800	-3474.261716	1044.640177	-31.723118	-3515.565125	1037.142957	59.174904	-3291.370553	915.462988	94.730404	-3287.832767	980.411981	130.205385	-3206.248487	957.577082	155.168703	-3322.615766	1323.919730	459.177128	-3441.436737	1214.569031	564.270990	-3431.939858	1167.526524	562.544606	-3483.009411	1166.311322	595.509976	-3540.834022	1074.911442	622.692345	-3591.692567	1079.542168	556.696769	-3395.665231	892.104230	503.157015	-3424.249215	841.886919	553.480552	-3327.093202	846.197427	517.615662	-3529.441523	936.980392	142.905727	-3480.696910	904.108525	383.911633	-3647.349088	1022.960067	309.943469	-3669.131897	995.550441	285.723770	-3655.188420	993.604337	339.962534	-3576.735474	641.146743	83.868304	-3522.156650	576.831279	73.195894	-3475.528411	589.418280	65.325674	-3520.796364	521.338539	100.364284	-3496.565246	440.352253	108.891918	-3471.032170	452.387243	232.888839	-3498.625525	280.893447	159.197648	-3578.358896	264.604122	125.225482	-3542.401270	246.767135	139.414909	-3576.052251	179.921271	183.115445	-3693.369214	102.339953	186.797535	-3673.335614	112.264391	271.596460	-3773.105186	62.612929	244.054487	-3559.303076	58.674147	239.579917	-3604.888282	32.711909	141.848103	-3563.151719	54.857462	191.735015	-3481.045382	723.462553	460.562592	-3431.397066	681.666516	449.587174	-3408.018321	691.288309	425.068492	-3436.332870	597.031357	451.612126	-3459.285951	437.939809	405.543877	-3447.777049	427.152108	272.626743	-3643.466674	382.597435	353.855547	-3717.996842	453.846445	393.968433	-3721.033456	409.744092	377.741879	-3772.329799	401.368500	344.747364	-3836.657337	450.554265	373.164950	-3826.788516	448.029241	288.956725	-3890.495693	532.047494	324.291364	-3892.620235	308.361433	304.073457	-3891.471053	312.404384	346.616846	-3923.076399	352.985080	398.769336	
